<?xml version="1.0" encoding="utf-8"?>
<!-- Svg Vector Icons : http://www.onlinewebfonts.com/icon -->
<!DOCTYPE svg PUBLIC "-//W3C//DTD SVG 1.1//EN" "http://www.w3.org/Graphics/SVG/1.1/DTD/svg11.dtd">
<svg version="1.1" xmlns="http://www.w3.org/2000/svg" xmlns:xlink="http://www.w3.org/1999/xlink" x="0px" y="0px" viewBox="0 0 1000 1000" enable-background="new 0 0 1000 1000" xml:space="preserve">
<metadata> Svg Vector Icons : http://www.onlinewebfonts.com/icon </metadata>
<g><path d="M984.1,918.8L671.4,606.1c44.5-60.6,70.8-135.4,70.8-216.4c0-202.2-163.9-366.1-366.1-366.1C173.9,23.7,10,187.6,10,389.7s163.9,366.1,366.1,366.1c94.9,0,181.4-36.1,246.4-95.3l310,310c7.9,7.9,20.7,7.9,28.6,0l23.1-23.1C992,939.5,992,926.7,984.1,918.8z M376.1,679.2c-159.9,0-289.5-129.6-289.5-289.5c0-159.9,129.6-289.5,289.5-289.5c159.9,0,289.5,129.6,289.5,289.5C665.6,549.6,536,679.2,376.1,679.2z"/><path d="M613.4,392.3h0.3c0-139.8-113.8-253.6-253.6-253.6l0,0l0,0c-19.6,0-35.5,15.9-35.5,35.5c0,19.6,15.9,35.5,35.5,35.5l0,0v0.3c100.5,0,182.3,81.8,182.3,182.3h0c0.2,19.4,16,35.1,35.5,35.1S613.2,411.8,613.4,392.3L613.4,392.3z"/></g>
</svg>