<?xml version="1.0" encoding="UTF-8" standalone="no"?>
<!-- Created with Inkscape (http://www.inkscape.org/) -->

<svg
   version="1.0"
   width="679.47827"
   height="881.67249"
   id="svg11382"
   sodipodi:docname="random-walls-mode-icon.svg"
   inkscape:export-filename="C:\Users\szucs\Desktop\Github\Projects\Tanks\assets\random-walls-mode-icon.png"
   inkscape:export-xdpi="396.642"
   inkscape:export-ydpi="396.642"
   inkscape:version="1.1.1 (3bf5ae0d25, 2021-09-20)"
   xmlns:inkscape="http://www.inkscape.org/namespaces/inkscape"
   xmlns:sodipodi="http://sodipodi.sourceforge.net/DTD/sodipodi-0.dtd"
   xmlns="http://www.w3.org/2000/svg"
   xmlns:svg="http://www.w3.org/2000/svg">
  <sodipodi:namedview
     id="namedview8"
     pagecolor="#505050"
     bordercolor="#ffffff"
     borderopacity="1"
     inkscape:pageshadow="0"
     inkscape:pageopacity="0"
     inkscape:pagecheckerboard="1"
     showgrid="true"
     inkscape:zoom="0.6993494"
     inkscape:cx="140.84519"
     inkscape:cy="406.80667"
     inkscape:window-width="1858"
     inkscape:window-height="1057"
     inkscape:window-x="54"
     inkscape:window-y="-7"
     inkscape:window-maximized="1"
     inkscape:current-layer="layer3">
    <inkscape:grid
       type="xygrid"
       id="grid184" />
  </sodipodi:namedview>
  <defs
     id="defs11384" />
  <g
     inkscape:groupmode="layer"
     id="layer3"
     inkscape:label="Layer 2"
     style="opacity:1">
    <rect
       style="fill:#000000;stroke:#000000;stroke-width:1.49071"
       id="rect434"
       width="200"
       height="30"
       x="-200"
       y="90"
       transform="rotate(-90)" />
    <rect
       style="fill:#000000;stroke:#000000;stroke-width:2.75882"
       id="rect1285"
       width="685"
       height="30"
       x="-5"
       y="170" />
    <rect
       style="fill:#000000;stroke:#000000;stroke-width:1.49071"
       id="rect1287"
       width="200"
       height="30"
       x="-200"
       y="540"
       transform="rotate(-90)" />
    <rect
       style="fill:#000000;stroke:#000000;stroke-width:2.75882"
       id="rect1289"
       width="685"
       height="30"
       x="0"
       y="370" />
    <rect
       style="fill:#000000;stroke:#000000;stroke-width:1.49071"
       id="rect1291"
       width="200"
       height="30"
       x="-380"
       y="310"
       transform="rotate(-90)" />
    <rect
       style="fill:#000000;stroke:#000000;stroke-width:1.49071"
       id="rect1293"
       width="200"
       height="30"
       x="-580"
       y="100"
       transform="rotate(-90)" />
    <rect
       style="fill:#000000;stroke:#000000;stroke-width:1.49071"
       id="rect1295"
       width="200"
       height="30"
       x="-580"
       y="530"
       transform="rotate(-90)" />
    <rect
       style="fill:#000000;stroke:#000000;stroke-width:2.75882"
       id="rect1297"
       width="685"
       height="30"
       x="0"
       y="570" />
    <rect
       style="fill:#000000;stroke:#000000;stroke-width:1.49071"
       id="rect1299"
       width="200"
       height="30"
       x="-780"
       y="310"
       transform="rotate(-90)" />
    <rect
       style="fill:#000000;stroke:#000000;stroke-width:1.49071"
       id="rect1301"
       width="200"
       height="30"
       x="-780"
       y="310"
       transform="rotate(-90)" />
    <rect
       style="fill:#000000;stroke:#000000;stroke-width:2.75882"
       id="rect1303"
       width="685"
       height="30"
       x="0"
       y="760" />
    <rect
       style="fill:#000000;stroke:#000000;stroke-width:1.1547"
       id="rect1307"
       width="120"
       height="30"
       x="-880"
       y="540"
       transform="rotate(-90)" />
    <rect
       style="fill:#000000;stroke:#000000;stroke-width:1.1547"
       id="rect1305"
       width="120"
       height="30"
       x="-880"
       y="100"
       transform="rotate(-90)" />
    <rect
       style="fill:#000000;stroke:#000000;stroke-width:1.49071"
       id="rect19255"
       width="200"
       height="30"
       x="-200"
       y="90"
       transform="rotate(-90)" />
    <rect
       style="fill:#000000;stroke:#000000;stroke-width:2.75882"
       id="rect19257"
       width="685"
       height="30"
       x="-5"
       y="170" />
    <rect
       style="fill:#000000;stroke:#000000;stroke-width:1.49071"
       id="rect19259"
       width="200"
       height="30"
       x="-200"
       y="540"
       transform="rotate(-90)" />
    <rect
       style="fill:#000000;stroke:#000000;stroke-width:2.75882"
       id="rect19261"
       width="685"
       height="30"
       x="0"
       y="370" />
    <rect
       style="fill:#000000;stroke:#000000;stroke-width:1.49071"
       id="rect19263"
       width="200"
       height="30"
       x="-380"
       y="310"
       transform="rotate(-90)" />
    <rect
       style="fill:#000000;stroke:#000000;stroke-width:1.49071"
       id="rect19265"
       width="200"
       height="30"
       x="-580"
       y="100"
       transform="rotate(-90)" />
    <rect
       style="fill:#000000;stroke:#000000;stroke-width:1.49071"
       id="rect19267"
       width="200"
       height="30"
       x="-580"
       y="530"
       transform="rotate(-90)" />
    <rect
       style="fill:#000000;stroke:#000000;stroke-width:2.75882"
       id="rect19269"
       width="685"
       height="30"
       x="0"
       y="570" />
    <rect
       style="fill:#000000;stroke:#000000;stroke-width:1.49071"
       id="rect19271"
       width="200"
       height="30"
       x="-780"
       y="310"
       transform="rotate(-90)" />
    <rect
       style="fill:#000000;stroke:#000000;stroke-width:1.49071"
       id="rect19273"
       width="200"
       height="30"
       x="-780"
       y="310"
       transform="rotate(-90)" />
    <rect
       style="fill:#000000;stroke:#000000;stroke-width:2.75882"
       id="rect19275"
       width="685"
       height="30"
       x="0"
       y="760" />
    <rect
       style="fill:#000000;stroke:#000000;stroke-width:1.1547"
       id="rect19277"
       width="120"
       height="30"
       x="-880"
       y="540"
       transform="rotate(-90)" />
    <rect
       style="fill:#000000;stroke:#000000;stroke-width:1.1547"
       id="rect19279"
       width="120"
       height="30"
       x="-880"
       y="100"
       transform="rotate(-90)" />
  </g>
  <g
     inkscape:groupmode="layer"
     id="layer2"
     inkscape:label="Layer 1"
     style="display:inline;opacity:1">
    <g
       transform="matrix(0.99963155,0,0,0.99937893,-48.723293,-55.486826)"
       id="layer1">
      <g
         id="g11476">
        <path
           d="M 474.50888,718.22841 H 303.49547 v -22.30134 c -2.4e-4,-37.95108 4.30352,-68.76211 12.9113,-92.43319 8.60728,-23.67032 23.63352,-45.28695 40.65324,-64.84996 17.01914,-19.56211 41.98734,-26.33264 101.45793,-75.63085 31.69095,-25.82203 55.2813,-77.1523 55.28175,-98.67174 2.21232,-56.92245 -13.93983,-79.3422 -34.56287,-99.96524 -22.67355,-19.67717 -60.67027,-30.06998 -90.99892,-30.06998 -27.77921,6.9e-4 -68.46735,8.08871 -87.7666,25.37047 -25.93817,17.28308 -65.23747,73.70611 -57.04687,130.54577 l -194.516943,1.70222 c 0,-157.21399 29.393699,-198.69465 99.004113,-263.03032 67.39739,-54.376643 126.53128,-73.268365 243.84757,-73.268365 89.71791,0 161.89728,17.80281 214.32552,53.405855 71.20714,48.12472 122.30105,111.18354 122.30105,230.11281 -6.9e-4,44.32081 -19.15253,90.78638 -43.0726,128.33299 -18.38947,30.90938 -60.37511,66.45236 -118.21237,104.41628 -42.83607,25.7686 -66.67196,53.11926 -77.03964,72.0946 -10.36863,18.97603 -15.55271,43.72267 -15.55225,74.23999 z"
           style="font-style:normal;font-weight:normal;font-size:1201.92px;font-family:'Bitstream Vera Sans';text-align:center;text-anchor:middle;fill:#000000;fill-opacity:1;stroke:none;stroke-width:1px;stroke-linecap:butt;stroke-linejoin:miter;stroke-opacity:1"
           id="path11472" />
        <path
           d="m 482.38298,869.80902 a 94.042557,73.021278 0 1 1 -188.08511,0 94.042557,73.021278 0 1 1 188.08511,0 z"
           transform="translate(1.106383,-5.5319149)"
           style="fill:#000000;fill-opacity:1;stroke:none;stroke-width:3;stroke-linecap:square;stroke-linejoin:miter;stroke-miterlimit:4;stroke-dasharray:none;stroke-dashoffset:0;stroke-opacity:1"
           id="path11474" />
      </g>
    </g>
  </g>
</svg>
